<svg id="Layer_1" data-name="Layer 1" xmlns="http://www.w3.org/2000/svg" xmlns:xlink="http://www.w3.org/1999/xlink" viewBox="0 0 1226.06 491.38"><defs><style>.cls-1{fill:url(#linear-gradient);}.cls-2{fill:url(#linear-gradient-2);}.cls-3{fill:url(#linear-gradient-3);}.cls-4{fill:url(#linear-gradient-4);}.cls-5{fill:url(#linear-gradient-5);}.cls-6{fill:url(#linear-gradient-6);}.cls-7{fill:url(#linear-gradient-7);}</style><linearGradient id="linear-gradient" x1="7361.1" y1="7251.72" x2="7820.07" y2="7251.72" gradientUnits="userSpaceOnUse"><stop offset="0" stop-color="#f05822"/><stop offset="0.29" stop-color="#ef4632"/><stop offset="0.66" stop-color="#ed284d"/></linearGradient><linearGradient id="linear-gradient-2" x1="6594.02" y1="7368.28" x2="6716.51" y2="7368.28" xlink:href="#linear-gradient"/><linearGradient id="linear-gradient-3" x1="6729.83" y1="7388.21" x2="6871.15" y2="7388.21" xlink:href="#linear-gradient"/><linearGradient id="linear-gradient-4" x1="6887.94" y1="7388.21" x2="7022.31" y2="7388.21" xlink:href="#linear-gradient"/><linearGradient id="linear-gradient-5" x1="7052.43" y1="7387.12" x2="7151.17" y2="7387.12" xlink:href="#linear-gradient"/><linearGradient id="linear-gradient-6" x1="7168.55" y1="7386.97" x2="7306.97" y2="7386.97" xlink:href="#linear-gradient"/><linearGradient id="linear-gradient-7" x1="7336.22" y1="7354.26" x2="7390.08" y2="7354.26" xlink:href="#linear-gradient"/></defs><title>Learnipi ai logo</title><path class="cls-1" d="M7689.82,7154c-5.9,36.54-10.86,84.29-10.86,127.41,0,34.59,3.19,66.2,11.66,86.7,6.71,16.26,13.43,23.89,17.25,26.82a28.28,28.28,0,0,0,1.36-9.38c0-23.73,17.88-43,39.94-43s39.93,19.23,39.93,43c0,48.08-25.67,86.25-63.9,95a69.65,69.65,0,0,1-15.33,1.71c-31,0-68-20.51-92.23-79.24-29.21-70.69-17.56-188.49-8.72-249-10.66-.32-21.5-.62-32.75-.83-2.58,52.18-8.92,153.18-21.75,220.37-18.64,97.82-75,123.92-105.32,123.92-22.06,0-39.93-19.23-39.93-43,0-22.86,16.59-41.54,37.54-42.87,7.06-1.67,21.82-15.17,29.47-55.35,11-57.79,17-147.14,19.78-198.92-39.26,7.95-53.21,24.5-55.42,32.4-2.9,21.07-19.78,36.63-39.45,36.63-1.19,0-2.4-.06-3.61-.18-22-2.12-38.17-23-36.22-46.62.5-5.87,4.41-36.57,33.47-64.79,32.67-31.75,83.66-47.84,151.54-47.84,23.66,0,45.88.62,65.48,1.18,102.73,2.89,121-1.66,130.45-32.51,6.89-22.53,29.46-34.79,50.41-27.4s32.34,31.69,25.46,54.22c-13.72,44.9-42.59,73.54-85.82,85.11A220.27,220.27,0,0,1,7689.82,7154Z" transform="translate(-6594.02 -7006.03)"/><path class="cls-2" d="M6621,7464.68q-12.46,0-19.69-7.79t-7.24-21.18v-161q3.18-.61,10.13-1.71a86.89,86.89,0,0,1,13.32-1.09,56.69,56.69,0,0,1,11.73,1.09,20.19,20.19,0,0,1,8.54,3.89,16.88,16.88,0,0,1,5.22,7.8,40.58,40.58,0,0,1,1.73,13.08v123H6711a42.77,42.77,0,0,1,3.76,9.19,41.3,41.3,0,0,1,1.74,12q0,12.47-4.92,17.6t-13,5.14Z" transform="translate(-6594.02 -7006.03)"/><path class="cls-3" d="M6810.33,7468.73a94.91,94.91,0,0,1-31.71-5.14,70.62,70.62,0,0,1-25.48-15.42,71.45,71.45,0,0,1-17.09-25.85q-6.23-15.57-6.22-36.44,0-20.56,6.22-35.36a69.81,69.81,0,0,1,16.37-24.29,64.35,64.35,0,0,1,23.16-14,80.86,80.86,0,0,1,26.65-4.51,75.43,75.43,0,0,1,27.94,5,66.34,66.34,0,0,1,21.72,13.7,61.06,61.06,0,0,1,14.19,20.87,68.27,68.27,0,0,1,5.07,26.48q0,10.59-5.51,16.19t-15.34,7.17l-71.53,11.52a25.26,25.26,0,0,0,13,15.42,48,48,0,0,0,22.59,5.14,75.55,75.55,0,0,0,22.44-3.27,68.66,68.66,0,0,0,17.23-7.63,25.39,25.39,0,0,1,7.82,8.72,23.67,23.67,0,0,1,3.19,11.84q0,14-12.17,20.87a61.44,61.44,0,0,1-20.85,7.16A136.25,136.25,0,0,1,6810.33,7468.73Zm-8.1-122.41a27,27,0,0,0-12,2.49,24.36,24.36,0,0,0-8.26,6.39,26.77,26.77,0,0,0-4.77,8.72,37.84,37.84,0,0,0-1.89,9.81l49.52-8.72q-.87-6.23-6.37-12.46T6802.23,7346.32Z" transform="translate(-6594.02 -7006.03)"/><path class="cls-4" d="M6952.81,7307.7a111.11,111.11,0,0,1,28.52,3.42,61.82,61.82,0,0,1,22,10.43,46.49,46.49,0,0,1,14.05,17.76q4.92,10.74,4.92,25.38v69.78q0,8.1-4.2,13.24a42.78,42.78,0,0,1-10,8.87q-18.82,12.15-53,12.15a112.68,112.68,0,0,1-27.66-3.12,62.92,62.92,0,0,1-21.14-9.34,41.88,41.88,0,0,1-13.61-15.89,50,50,0,0,1-4.78-22.42q0-21.49,11.87-33t36.78-14.33l37.94-4.36v-2.18q0-9-7.39-12.93t-21.28-3.89a91.38,91.38,0,0,0-21.43,2.5,107.86,107.86,0,0,0-18.82,6.22,21.2,21.2,0,0,1-6.37-8.56,28.76,28.76,0,0,1-2.61-12q0-8.08,3.62-12.92t11.15-8.25a81.76,81.76,0,0,1,19.83-5A161.7,161.7,0,0,1,6952.81,7307.7Zm2.32,122.41A60.08,60.08,0,0,0,6966,7429a25.38,25.38,0,0,0,8.84-3v-24.92L6954,7403q-8.11.63-13.32,3.74a10.18,10.18,0,0,0-5.22,9.34,12.77,12.77,0,0,0,4.49,10.12Q6944.41,7430.11,6955.13,7430.11Z" transform="translate(-6594.02 -7006.03)"/><path class="cls-5" d="M7101.65,7463.43a62.6,62.6,0,0,1-9.12,1.88,87.15,87.15,0,0,1-12.88.93,63.65,63.65,0,0,1-11.44-.93,19,19,0,0,1-8.55-3.74,17.9,17.9,0,0,1-5.35-7.63,35.23,35.23,0,0,1-1.88-12.62v-93.45a26.5,26.5,0,0,1,9.55-21.49,50.86,50.86,0,0,1,11.44-7.32,113.81,113.81,0,0,1,14.62-5.76,116.28,116.28,0,0,1,16.22-3.89,101.23,101.23,0,0,1,16.8-1.41q13.89,0,22,5.77t8.11,18.84a32.25,32.25,0,0,1-1.16,8.57,40.49,40.49,0,0,1-2.89,7.63q-6.09,0-12.45.62a121.48,121.48,0,0,0-12.45,1.87q-6.09,1.24-11.44,2.65a47.25,47.25,0,0,0-9.13,3.27Z" transform="translate(-6594.02 -7006.03)"/><path class="cls-6" d="M7257.74,7367.81q0-9.65-5.06-14.17t-13.76-4.52a42.81,42.81,0,0,0-11.44,1.56,28.06,28.06,0,0,0-9.7,4.67v108.08a62.6,62.6,0,0,1-9.12,1.88,87.29,87.29,0,0,1-12.89.93,63.73,63.73,0,0,1-11.44-.93,18.93,18.93,0,0,1-8.54-3.74,17.92,17.92,0,0,1-5.36-7.63,35.46,35.46,0,0,1-1.88-12.62v-93.45q0-8.4,3.33-13.7a36.61,36.61,0,0,1,9.12-9.66q9.84-7.47,24.76-12.15a110.76,110.76,0,0,1,33.16-4.66q32.71,0,50.39,15.41t17.66,42.83v97.49a62.6,62.6,0,0,1-9.12,1.88,87.19,87.19,0,0,1-12.89.93,63.62,63.62,0,0,1-11.43-.93,18.92,18.92,0,0,1-8.55-3.74,17.9,17.9,0,0,1-5.35-7.63,35.21,35.21,0,0,1-1.89-12.62Z" transform="translate(-6594.02 -7006.03)"/><path class="cls-7" d="M7336.22,7270.31q0-11.82,7.38-19.93t19.55-8.1q12.17,0,19.55,8.1t7.38,19.93q0,11.85-7.38,19.94t-19.55,8.1q-12.16,0-19.55-8.1T7336.22,7270.31Zm51.55,193.12q-3.19.63-9.42,1.72a73.55,73.55,0,0,1-12.59,1.09,63.65,63.65,0,0,1-11.44-.93,18.89,18.89,0,0,1-8.54-3.74,17.83,17.83,0,0,1-5.36-7.63,35.23,35.23,0,0,1-1.88-12.62V7314.55c2.12-.42,5.25-1,9.41-1.72a73.55,73.55,0,0,1,12.59-1.09,63.68,63.68,0,0,1,11.44.94,18.76,18.76,0,0,1,8.55,3.74,17.92,17.92,0,0,1,5.35,7.63,35.15,35.15,0,0,1,1.89,12.61Z" transform="translate(-6594.02 -7006.03)"/></svg>